# xmcd
# 
# Track frame offsets:
#     150
#     18619
#     33021
#     49641
#     66983
#     90916
#     110289
#     131169
#     151532
#     174591
#     190174
#     211503
# 
# Disc length: 3174
# 
# Revision: 0
# Processed by: cddbd v1.5.2PL0 Copyright (c) Steve Scherf et al.
# Submitted via: fre:ac v1.0.31
# 
DISCID=8c0c640c
DTITLE=SCANDAL - BABY ACTION
DYEAR=2011
DGENRE=JPop
TTITLE0=GLAMOROUS YOU
TTITLE1=その時、世界はキミだらけのレイン
TTITLE2=LOVE SURVIVE
TTITLE3=Sparkling
TTITLE4=BURN
TTITLE5=アップルたちの伝言
TTITLE6=東京スカイスクレイパー
TTITLE7=Pride
TTITLE8=ハルカ
TTITLE9=スキャンダルなんかブッ飛ばせ
TTITLE10=Very Special
TTITLE11=one piece
EXTD=
EXTT0=
EXTT1=
EXTT2=
EXTT3=
EXTT4=
EXTT5=
EXTT6=
EXTT7=
EXTT8=
EXTT9=
EXTT10=
EXTT11=
PLAYORDER=
